# xmcd
#
# Track frame offsets:
#	182
#	14947
#	31667
#	43422
#	55542
#	75110
#	87937
#	101310
#	112522
#	124330
#	140075
#	156400
#	167705
#	182910
#	194577
#
# Disc length: 2785 seconds
#
# Revision: 1
# Processed by: cddbd v1.5.1PL0 Copyright (c) Steve Scherf et al.
# Submitted via: audiograbber 1.83.01
#
DISCID=c20adf0f
DTITLE=Various Artist - Playback`s Country [CD2]
DYEAR=1995
DGENRE=Playback
TTITLE0=Charlie Dore - Pilot Of The Airwaves
TTITLE1=Sheena Easton - A Little Tenderness
TTITLE2=Charly Rich - The Most Beautiful Girl
TTITLE3=Don Gibson - Oh Lonesome Me
TTITLE4=John Michael Montgomery - I Swear
TTITLE5=Eagles - Tequila Sunrise
TTITLE6=Nancy Sinatra and Lee Hazlewood - Jackson
TTITLE7=Willy Nelson - On the Road Again
TTITLE8=Dolly Parton - Jolene
TTITLE9=Kenny Rogers - The Gambler
TTITLE10=Billy Jo Spears - Blanket On The Ground
TTITLE11=Don Williams-Telly Savalas - Some Broken Hearts Never Mend
TTITLE12=Cat Stevens - Morning Has Broken
TTITLE13=Johnny Cash - Folsom Prism Blues
TTITLE14=Diverse - Banks Of The Ohio
EXTD=Instrumental
EXTT0=
EXTT1=
EXTT2=
EXTT3=
EXTT4=
EXTT5=
EXTT6=
EXTT7=
EXTT8=
EXTT9=
EXTT10=
EXTT11=
EXTT12=
EXTT13=
EXTT14=
PLAYORDER=
